<?xml version="1.0" encoding="UTF-8"?>
<svg version="1.1" xmlns="http://www.w3.org/2000/svg" width="277" height="214">
<path d="M0 0 C91.41 0 182.82 0 277 0 C277 70.62 277 141.24 277 214 C185.59 214 94.18 214 0 214 C0 143.38 0 72.76 0 0 Z " fill="#FEFEFE" transform="translate(0,0)"/>
<path d="M0 0 C2.21611703 1.68777125 4.35147344 3.44342158 6.484375 5.234375 C7.495 5.976875 8.505625 6.719375 9.546875 7.484375 C21.94461674 18.02760689 28.93575347 35.39315466 30.71191406 51.26806641 C32.02389575 68.31145122 26.48969696 85.51803089 16.28125 99.18359375 C14.11184127 101.66020896 11.86250032 103.95875508 9.484375 106.234375 C8.79859375 106.93949219 8.1128125 107.64460938 7.40625 108.37109375 C-6.2008311 121.60020037 -24.59105033 125.90715795 -43.02050781 125.77539062 C-62.07883201 125.15755544 -77.60271756 115.72911402 -90.515625 102.234375 C-104.57843631 85.85439592 -107.65476224 67.14568 -106.515625 46.234375 C-105.00582475 33.31872014 -98.09366272 20.83582286 -89.515625 11.234375 C-88.91105469 10.54859375 -88.30648437 9.8628125 -87.68359375 9.15625 C-65.24732703 -14.78795318 -26.831419 -18.83198973 0 0 Z " fill="#E2332C" transform="translate(175.515625,37.765625)"/>
<path d="M0 0 C0.66 0 1.32 0 2 0 C1.28983288 5.95071072 -0.07187289 11.63783318 -1.5625 17.4375 C-1.91344727 18.82098633 -1.91344727 18.82098633 -2.27148438 20.23242188 C-2.84442445 22.48910422 -3.42176463 24.74466867 -4 27 C-0.37 27.33 3.26 27.66 7 28 C6.34 31.3 5.68 34.6 5 38 C1.04 38 -2.92 38 -7 38 C-7.27714844 39.27617188 -7.55429688 40.55234375 -7.83984375 41.8671875 C-8.20558957 43.53648893 -8.57148262 45.2057581 -8.9375 46.875 C-9.11990234 47.71675781 -9.30230469 48.55851562 -9.49023438 49.42578125 C-9.66748047 50.23144531 -9.84472656 51.03710938 -10.02734375 51.8671875 C-10.18968506 52.61081543 -10.35202637 53.35444336 -10.51928711 54.12060547 C-11 56 -11 56 -12 58 C-12.25 61.5 -12.25 61.5 -12 65 C-9.23776722 67.76223278 -6.79293383 67.57856291 -3 68 C-2.81630859 66.52853516 -2.81630859 66.52853516 -2.62890625 65.02734375 C-2.02394116 60.79258811 -1.00842346 56.69974647 0.0625 52.5625 C1.0215625 48.8190625 1.0215625 48.8190625 2 45 C8.27 45.33 14.54 45.66 21 46 C20.34674368 51.87930685 19.70310536 56.78648988 18.2578125 62.38671875 C18.00425491 63.38322197 18.00425491 63.38322197 17.74557495 64.39985657 C17.21106656 66.49724339 16.66861794 68.59245768 16.125 70.6875 C15.41565657 73.44048964 14.71012894 76.19442823 14.0078125 78.94921875 C13.83703186 79.61807098 13.66625122 80.28692322 13.49029541 80.9760437 C11.81266115 87.61504433 10.39272389 94.29477902 9 101 C2.4 101 -4.2 101 -11 101 C-9.86345347 93.93717516 -8.62539958 86.9659982 -7 80 C-7.52980469 80.15855469 -8.05960938 80.31710938 -8.60546875 80.48046875 C-14.72865372 81.80899012 -22.37978709 82.35224742 -28.0625 79.375 C-31.31847009 76.74251355 -33.18194081 74.78156312 -35 71 C-35.73074523 63.31364272 -33.51534231 56.36883849 -31.5 49 C-31.16613281 47.74832031 -30.83226563 46.49664062 -30.48828125 45.20703125 C-29.66768279 42.13564844 -28.8350385 39.06748837 -28 36 C-31.96 36 -35.92 36 -40 36 C-37.23495388 33.23495388 -35.53906813 32.16144562 -32.125 30.5 C-20.1851462 24.08173867 -6.17874941 12.35749882 0 0 Z " fill="#FDFAFA" transform="translate(144,45)"/>
<path d="M0 0 C6.875 0.875 6.875 0.875 8 2 C7.4 8.6 7.4 8.6 5 11 C2.12987704 11.36796448 0.59225382 11.37509409 -1.875 9.8125 C-3 8 -3 8 -2.8125 5.5 C-2 3 -2 3 0 0 Z " fill="#2F3F81" transform="translate(106,165)"/>
<path d="M0 0 C3.0625 0.3125 3.0625 0.3125 4.9375 1.5 C6.46909584 3.96757108 6.49072025 5.45769831 6.0625 8.3125 C4.875 10.1875 4.875 10.1875 3.0625 11.3125 C0.23713858 11.17123193 -1.42206516 10.6679723 -3.75 9.0625 C-5.36732809 6.67906913 -5.29919769 5.13374201 -4.9375 2.3125 C-2.9375 0.3125 -2.9375 0.3125 0 0 Z " fill="#24357B" transform="translate(197.9375,143.6875)"/>
<path d="M0 0 C2.68930863 0.94125802 3.95731359 1.47526558 5.5 3.875 C5.25546876 7.21692692 4.89456443 8.48043557 2.5 10.875 C-0.34602594 11.23987512 -1.8864306 11.27699375 -4.3125 9.6875 C-5.92525784 7.22592224 -5.9334014 5.76434264 -5.5 2.875 C-3.82886908 0.23637223 -3.1449954 -0.15724977 0 0 Z " fill="#29387D" transform="translate(189.5,152.125)"/>
<path d="M0 0 C3 0.25 3 0.25 5 2.25 C4.625 5.875 4.625 5.875 4 9.25 C0.625 9.875 0.625 9.875 -3 10.25 C-5 8.25 -5 8.25 -5.25 5.25 C-4.90584825 1.120179 -4.129821 0.34415175 0 0 Z " fill="#26367B" transform="translate(83,150.75)"/>
<path d="M0 0 C0.33 2.64 0.66 5.28 1 8 C0.34 8 -0.32 8 -1 8 C-1.33 6.35 -1.66 4.7 -2 3 C-3.29633621 4.06645115 -3.29633621 4.06645115 -3.0625 6.5625 C-3.041875 7.366875 -3.02125 8.17125 -3 9 C-3.66 9 -4.32 9 -5 9 C-5.12375 8.360625 -5.2475 7.72125 -5.375 7.0625 C-5.58125 6.381875 -5.7875 5.70125 -6 5 C-6.66 4.67 -7.32 4.34 -8 4 C-7.67 6.31 -7.34 8.62 -7 11 C-7.66 11 -8.32 11 -9 11 C-10.60725635 7.78548731 -10.05748185 4.56387464 -10 1 C-6.56484998 0.37542727 -3.50935186 0 0 0 Z " fill="#1C2F77" transform="translate(63,108)"/>
<path d="M0 0 C-0.33 2.31 -0.66 4.62 -1 7 C-0.54625 6.505 -0.0925 6.01 0.375 5.5 C2 4 2 4 4 4 C2.55873214 7.36295835 0.79407345 9.62927102 -2 12 C-2.99 12 -3.98 12 -5 12 C-5 10.02 -5 8.04 -5 6 C-6.32 6.33 -7.64 6.66 -9 7 C-7.68534669 3.05604006 -4.38536841 0 0 0 Z " fill="#23357C" transform="translate(77,141)"/>
<path d="M0 0 C3.55780196 0.60990891 6.6828589 1.5783681 10 3 C10 3.99 10 4.98 10 6 C8.35 5.67 6.7 5.34 5 5 C4.67 6.32 4.34 7.64 4 9 C5.32 9.33 6.64 9.66 8 10 C8 10.66 8 11.32 8 12 C4.05879291 11.43697042 1.2491277 10.3208055 -2 8 C-2 7.34 -2 6.68 -2 6 C0.475 6.495 0.475 6.495 3 7 C3 5.68 3 4.36 3 3 C2.01 2.67 1.02 2.34 0 2 C0 1.34 0 0.68 0 0 Z " fill="#2F4082" transform="translate(208,121)"/>
<path d="M0 0 C-0.33 1.98 -0.66 3.96 -1 6 C0.32 5.67 1.64 5.34 3 5 C3 5.99 3 6.98 3 8 C-2.14285714 12 -2.14285714 12 -6 12 C-6 11.34 -6 10.68 -6 10 C-5.34 9.67 -4.68 9.34 -4 9 C-4 8.01 -4 7.02 -4 6 C-5.65 6.33 -7.3 6.66 -9 7 C-9 6.01 -9 5.02 -9 4 C-2.25 0 -2.25 0 0 0 Z " fill="#22337A" transform="translate(70,131)"/>
<path d="M0 0 C4.04131267 1.34710422 4.90288434 3.38428334 7 7 C7 7.99 7 8.98 7 10 C6.34 10 5.68 10 5 10 C4.67 9.34 4.34 8.68 4 8 C1.97536745 7.34786708 1.97536745 7.34786708 0 7 C0.66 8.98 1.32 10.96 2 13 C1.01 13 0.02 13 -1 13 C-1.67154933 11.71086513 -2.33708859 10.41859796 -3 9.125 C-3.37125 8.40570313 -3.7425 7.68640625 -4.125 6.9453125 C-5 5 -5 5 -5 3 C-4.01 3.33 -3.02 3.66 -2 4 C-2 4.66 -2 5.32 -2 6 C-0.68 5.67 0.64 5.34 2 5 C1.34 3.35 0.68 1.7 0 0 Z " fill="#314182" transform="translate(178,158)"/>
<path d="M0 0 C0 0.66 0 1.32 0 2 C-1.65 2.33 -3.3 2.66 -5 3 C-5 3.66 -5 4.32 -5 5 C-3.02 4.67 -1.04 4.34 1 4 C1 4.66 1 5.32 1 6 C0.01 6.33 -0.98 6.66 -2 7 C-2.33 7.66 -2.66 8.32 -3 9 C-1.02 8.67 0.96 8.34 3 8 C3 8.66 3 9.32 3 10 C0.09399739 11.25664978 -1.79604584 12 -5 12 C-5.66 8.37 -6.32 4.74 -7 1 C-3 0 -3 0 0 0 Z " fill="#2E3F80" transform="translate(166,165)"/>
<path d="M0 0 C0 0.66 0 1.32 0 2 C-0.99 2.495 -0.99 2.495 -2 3 C-1.67 4.65 -1.34 6.3 -1 8 C0.32 8.33 1.64 8.66 3 9 C3.33 7.68 3.66 6.36 4 5 C3.01 5.33 2.02 5.66 1 6 C1.33 4.68 1.66 3.36 2 2 C3.32 2.33 4.64 2.66 6 3 C5.25 8.75 5.25 8.75 3 11 C0.15397406 11.36487512 -1.3864306 11.40199375 -3.8125 9.8125 C-5.42525784 7.35092224 -5.4334014 5.88934264 -5 3 C-2.72413793 0 -2.72413793 0 0 0 Z " fill="#1C2E76" transform="translate(206,133)"/>
<path d="M0 0 C0 0.66 0 1.32 0 2 C-1.98 2 -3.96 2 -6 2 C-5.67 3.65 -5.34 5.3 -5 7 C-3.68 7.33 -2.36 7.66 -1 8 C-1 7.34 -1 6.68 -1 6 C-1.66 6 -2.32 6 -3 6 C-3 5.34 -3 4.68 -3 4 C-1.68 4 -0.36 4 1 4 C1 5.65 1 7.3 1 9 C-5.42548263 10.33359073 -5.42548263 10.33359073 -7.9375 8.875 C-9.36066991 6.36352369 -9.42674516 4.84496772 -9 2 C-6.63480795 -1.94198675 -4.0732639 -0.99568673 0 0 Z " fill="#25367A" transform="translate(156,169)"/>
<path d="M0 0 C2.4375 0.75 2.4375 0.75 4.4375 2.75 C4.5625 5.375 4.5625 5.375 4.4375 7.75 C3.4475 8.245 3.4475 8.245 2.4375 8.75 C2.4375 6.77 2.4375 4.79 2.4375 2.75 C0.7875 3.08 -0.8625 3.41 -2.5625 3.75 C-2.5625 5.07 -2.5625 6.39 -2.5625 7.75 C-1.9025 8.08 -1.2425 8.41 -0.5625 8.75 C-0.5625 9.41 -0.5625 10.07 -0.5625 10.75 C-4.4375 9.875 -4.4375 9.875 -5.5625 8.75 C-5.8125 5.3125 -5.8125 5.3125 -5.5625 1.75 C-2.5625 -0.25 -2.5625 -0.25 0 0 Z " fill="#2D3C7F" transform="translate(62.5625,120.25)"/>
<path d="M0 0 C0.66 0 1.32 0 2 0 C2 3.3 2 6.6 2 10 C1.34 10 0.68 10 0 10 C0 9.01 0 8.02 0 7 C-4.455 7.495 -4.455 7.495 -9 8 C-9 6.68 -9 5.36 -9 4 C-6.03 4 -3.06 4 0 4 C0 2.68 0 1.36 0 0 Z " fill="#3E4F8D" transform="translate(60,94)"/>
<path d="M0 0 C2.31 0 4.62 0 7 0 C7 0.33 7 0.66 7 1 C5.35 1 3.7 1 2 1 C2 1.99 2 2.98 2 4 C3.65 4 5.3 4 7 4 C7 4.66 7 5.32 7 6 C5.35 6 3.7 6 2 6 C2 6.66 2 7.32 2 8 C3.98 8 5.96 8 8 8 C8 8.66 8 9.32 8 10 C5.36 10 2.72 10 0 10 C0 6.7 0 3.4 0 0 Z " fill="#223378" transform="translate(137,170)"/>
<path d="M0 0 C0.804375 0.433125 0.804375 0.433125 1.625 0.875 C4.35280484 2.16711808 7.12612718 3.08558592 10 4 C10 4.99 10 5.98 10 7 C8.01432292 7.48828125 6.02864583 7.9765625 4.04296875 8.46484375 C2.34316798 8.91010705 0.66698046 9.44433985 -1 10 C-1 9.01 -1 8.02 -1 7 C0.32 6.67 1.64 6.34 3 6 C3 5.34 3 4.68 3 4 C2.01 3.67 1.02 3.34 0 3 C0 2.01 0 1.02 0 0 Z " fill="#23337A" transform="translate(213,97)"/>
<path d="M0 0 C0.66 0 1.32 0 2 0 C1.125 6.75 1.125 6.75 0 9 C-3.46941546 8.54177532 -6.67395049 8.10868317 -10 7 C-10 6.01 -10 5.02 -10 4 C-5.545 4.99 -5.545 4.99 -1 6 C-1.020625 5.195625 -1.04125 4.39125 -1.0625 3.5625 C-1 1 -1 1 0 0 Z " fill="#3A4988" transform="translate(220,111)"/>
<path d="M0 0 C1.1446875 0.3403125 1.1446875 0.3403125 2.3125 0.6875 C2.6425 2.0075 2.9725 3.3275 3.3125 4.6875 C2.6525 4.0275 1.9925 3.3675 1.3125 2.6875 C-0.79570797 3.0060177 -0.79570797 3.0060177 -2.6875 3.6875 C-2.6875 5.0075 -2.6875 6.3275 -2.6875 7.6875 C-1.3675 7.6875 -0.0475 7.6875 1.3125 7.6875 C0.9825 8.6775 0.6525 9.6675 0.3125 10.6875 C-4.5625 9.8125 -4.5625 9.8125 -5.6875 8.6875 C-6.14441383 3.43299098 -6.14441383 3.43299098 -4.5 0.75 C-2.6875 -0.3125 -2.6875 -0.3125 0 0 Z " fill="#2C3C7E" transform="translate(98.6875,160.3125)"/>
<path d="M0 0 C0.66 0 1.32 0 2 0 C2 2.97 2 5.94 2 9 C3.65 9 5.3 9 7 9 C7 9.66 7 10.32 7 11 C4.36 11 1.72 11 -1 11 C-0.67 7.37 -0.34 3.74 0 0 Z " fill="#354585" transform="translate(127,169)"/>
<path d="M0 0 C0.66 0 1.32 0 2 0 C1.34 3.3 0.68 6.6 0 10 C1.65 10 3.3 10 5 10 C5 10.66 5 11.32 5 12 C2.36 11.67 -0.28 11.34 -3 11 C-2.69217504 9.35328588 -2.37860766 7.70764424 -2.0625 6.0625 C-1.88847656 5.14597656 -1.71445313 4.22945312 -1.53515625 3.28515625 C-1 1 -1 1 0 0 Z " fill="#3B4987" transform="translate(118,167)"/>
<path d="M0 0 C1.67542976 0.28604898 3.34385343 0.61781233 5 1 C4.67 2.65 4.34 4.3 4 6 C2.0625 6.5625 2.0625 6.5625 0 7 C-1 6 -1 6 -1.125 3.5 C-1 1 -1 1 0 0 Z " fill="#E2E6F0" transform="translate(107,167)"/>
<path d="M0 0 C2 3 2 3 2 5 C2.66 5 3.32 5 4 5 C3.67 6.32 3.34 7.64 3 9 C1.35 8.67 -0.3 8.34 -2 8 C-2.33 6.35 -2.66 4.7 -3 3 C-2.01 2.67 -1.02 2.34 0 2 C0 1.34 0 0.68 0 0 Z " fill="#D7DCE9" transform="translate(206,133)"/>
<path d="M0 0 C3.25696479 0.41755959 4.63443291 0.63443291 7 3 C5.68 3 4.36 3 3 3 C3 3.66 3 4.32 3 5 C3.66 5 4.32 5 5 5 C5 5.66 5 6.32 5 7 C3.35 6.67 1.7 6.34 0 6 C-0.38218767 4.34385343 -0.71395102 2.67542976 -1 1 C-0.67 0.67 -0.34 0.34 0 0 Z " fill="#D1D7E6" transform="translate(150,170)"/>
<path d="M0 0 C3.69230769 0.69230769 3.69230769 0.69230769 5 2 C5.04063832 3.66617115 5.042721 5.33388095 5 7 C3.35 6.67 1.7 6.34 0 6 C-0.38218767 4.34385343 -0.71395102 2.67542976 -1 1 C-0.67 0.67 -0.34 0.34 0 0 Z " fill="#E6E9F1" transform="translate(187,154)"/>
<path d="M0 0 C1.65 0.33 3.3 0.66 5 1 C5.33 2.32 5.66 3.64 6 5 C3.625 5.625 3.625 5.625 1 6 C0.34 5.34 -0.32 4.68 -1 4 C-0.625 1.875 -0.625 1.875 0 0 Z " fill="#EDF0F6" transform="translate(196,146)"/>
<path d="M0 0 C0.66 0.33 1.32 0.66 2 1 C-1.63 4.96 -5.26 8.92 -9 13 C-9.33 12.01 -9.66 11.02 -10 10 C-6.7 6.7 -3.4 3.4 0 0 Z " fill="#DC3F38" transform="translate(94,41)"/>
<path d="M0 0 C1.2065625 0.0309375 1.2065625 0.0309375 2.4375 0.0625 C2.1075 1.7125 1.7775 3.3625 1.4375 5.0625 C0.1175 5.3925 -1.2025 5.7225 -2.5625 6.0625 C-2.94468767 4.40635343 -3.27645102 2.73792976 -3.5625 1.0625 C-2.5625 0.0625 -2.5625 0.0625 0 0 Z " fill="#F3F5F9" transform="translate(83.5625,152.9375)"/>
<path d="M0 0 C0.66 0 1.32 0 2 0 C0.55873214 3.36295835 -1.20592655 5.62927102 -4 8 C-4.99 8 -5.98 8 -7 8 C-7 6.35 -7 4.7 -7 3 C-6.21625 2.87625 -5.4325 2.7525 -4.625 2.625 C-1.85942178 2.20882007 -1.85942178 2.20882007 0 0 Z " fill="#324384" transform="translate(79,145)"/>
<path d="M0 0 C6.6 0 13.2 0 20 0 C19.67 1.65 19.34 3.3 19 5 C18.67 4.01 18.34 3.02 18 2 C16.86820313 2.02320312 15.73640625 2.04640625 14.5703125 2.0703125 C13.08854825 2.08906901 11.60677688 2.10726934 10.125 2.125 C9.37863281 2.14175781 8.63226563 2.15851563 7.86328125 2.17578125 C5.90805539 2.1933959 3.95257979 2.10320189 2 2 C1.34 1.34 0.68 0.68 0 0 Z " fill="#BD443E" transform="translate(117,125)"/>
<path d="M0 0 C1.98 0 3.96 0 6 0 C6 0.99 6 1.98 6 3 C7.32 3.33 8.64 3.66 10 4 C10 4.66 10 5.32 10 6 C6.05879291 5.43697042 3.2491277 4.3208055 0 2 C0 1.34 0 0.68 0 0 Z " fill="#203078" transform="translate(206,127)"/>
<path d="M0 0 C0.33 0 0.66 0 1 0 C1.22732116 2.80362763 1.34081872 4.46186517 -0.1875 6.875 C-2 8 -2 8 -4.6875 7.6875 C-5.450625 7.460625 -6.21375 7.23375 -7 7 C-7 6.34 -7 5.68 -7 5 C-5.824375 4.87625 -5.824375 4.87625 -4.625 4.75 C-1.85250896 4.27193661 -1.85250896 4.27193661 -0.6875 1.9375 C-0.460625 1.298125 -0.23375 0.65875 0 0 Z " fill="#384787" transform="translate(203,147)"/>
<path d="M0 0 C2.475 0.99 2.475 0.99 5 2 C4.67 2.66 4.34 3.32 4 4 C3.34 3.67 2.68 3.34 2 3 C2.33 5.31 2.66 7.62 3 10 C2.34 10 1.68 10 1 10 C-0.60725635 6.78548731 -0.05748185 3.56387464 0 0 Z " fill="#384785" transform="translate(53,109)"/>
<path d="M0 0 C-0.66 1.65 -1.32 3.3 -2 5 C-2.33 4.34 -2.66 3.68 -3 3 C-3.928125 3.99 -3.928125 3.99 -4.875 5 C-7 7 -7 7 -9 7 C-9 6.01 -9 5.02 -9 4 C-2.25 0 -2.25 0 0 0 Z " fill="#324184" transform="translate(70,131)"/>
<path d="M0 0 C1.67542976 0.28604898 3.34385343 0.61781233 5 1 C5.33 2.32 5.66 3.64 6 5 C5.34 4.34 4.68 3.68 4 3 C1.73725212 3.35355436 0.04911148 3.97544426 -2 5 C-1.125 1.125 -1.125 1.125 0 0 Z " fill="#253476" transform="translate(96,160)"/>
<path d="M0 0 C2.75717702 1.37858851 3.46321746 3.37466315 5 6 C5.66 6.66 6.32 7.32 7 8 C2.25 7.25 2.25 7.25 0 5 C-0.125 2.375 -0.125 2.375 0 0 Z " fill="#1D2F76" transform="translate(184,155)"/>
<path d="M0 0 C0.33 0 0.66 0 1 0 C1.36923077 7.50769231 1.36923077 7.50769231 -0.5 10 C-0.995 10.33 -1.49 10.66 -2 11 C-1.125 3.375 -1.125 3.375 0 0 Z " fill="#BA4E49" transform="translate(163,100)"/>
<path d="M0 0 C0.33 0.66 0.66 1.32 1 2 C2.32 2.33 3.64 2.66 5 3 C0.545 4.485 0.545 4.485 -4 6 C-4 5.01 -4 4.02 -4 3 C-2.68 2.67 -1.36 2.34 0 2 C0 1.34 0 0.68 0 0 Z " fill="#2B3D81" transform="translate(216,101)"/>
<path d="M0 0 C0.66 0 1.32 0 2 0 C1.6875 2.375 1.6875 2.375 1 5 C0.01 5.66 -0.98 6.32 -2 7 C-2.66 6.34 -3.32 5.68 -4 5 C-3.01 5 -2.02 5 -1 5 C-0.67 3.35 -0.34 1.7 0 0 Z " fill="#384787" transform="translate(193,156)"/>
<path d="M0 0 C1.76462683 3.08809695 2 4.23312136 2 8 C1.34 8 0.68 8 0 8 C-0.12375 7.195625 -0.2475 6.39125 -0.375 5.5625 C-0.684375 4.2940625 -0.684375 4.2940625 -1 3 C-1.66 2.67 -2.32 2.34 -3 2 C-2.01 2 -1.02 2 0 2 C0 1.34 0 0.68 0 0 Z " fill="#3C4C88" transform="translate(62,108)"/>
</svg>
